<mxfile host="app.diagrams.net" modified="2022-01-20T07:28:40.052Z" agent="5.0 (Macintosh; Intel Mac OS X 10_15_7) AppleWebKit/537.36 (KHTML, like Gecko) Chrome/97.0.4692.71 Safari/537.36" etag="5pybvRMGP_loW5r5nEwB" version="16.2.7" type="github">
  <diagram name="Page-1" id="c37626ed-c26b-45fb-9056-f9ebc6bb27b6">
    <mxGraphModel dx="1210" dy="779" grid="1" gridSize="10" guides="1" tooltips="1" connect="1" arrows="1" fold="1" page="1" pageScale="1" pageWidth="1100" pageHeight="850" background="none" math="0" shadow="0">
      <root>
        <mxCell id="0" />
        <mxCell id="1" parent="0" />
        <mxCell id="1xLOZ17CYS4UkB0JXkVa-25" value="" style="ellipse;whiteSpace=wrap;html=1;dashed=1;dashPattern=1 1;" vertex="1" parent="1">
          <mxGeometry x="150" y="10" width="900" height="320" as="geometry" />
        </mxCell>
        <mxCell id="1xLOZ17CYS4UkB0JXkVa-2" value="" style="shape=mxgraph.cisco.switches.multiswitch_device;sketch=0;html=1;pointerEvents=1;dashed=0;fillColor=#036897;strokeColor=#ffffff;strokeWidth=2;verticalLabelPosition=bottom;verticalAlign=top;align=center;outlineConnect=0;" vertex="1" parent="1">
          <mxGeometry x="890" y="610" width="101" height="64" as="geometry" />
        </mxCell>
        <object label="" id="1xLOZ17CYS4UkB0JXkVa-3">
          <mxCell style="shape=mxgraph.cisco.routers.router;sketch=0;html=1;pointerEvents=1;dashed=0;fillColor=#036897;strokeColor=#ffffff;strokeWidth=2;verticalLabelPosition=bottom;verticalAlign=top;align=center;outlineConnect=0;" vertex="1" parent="1">
            <mxGeometry x="913" y="694" width="78" height="53" as="geometry" />
          </mxCell>
        </object>
        <mxCell id="1xLOZ17CYS4UkB0JXkVa-17" style="edgeStyle=orthogonalEdgeStyle;rounded=0;orthogonalLoop=1;jettySize=auto;html=1;exitX=0.5;exitY=1;exitDx=0;exitDy=0;exitPerimeter=0;entryX=0;entryY=0.5;entryDx=0;entryDy=0;entryPerimeter=0;endArrow=none;endFill=0;" edge="1" parent="1" source="1xLOZ17CYS4UkB0JXkVa-4" target="1xLOZ17CYS4UkB0JXkVa-15">
          <mxGeometry relative="1" as="geometry" />
        </mxCell>
        <mxCell id="1xLOZ17CYS4UkB0JXkVa-4" value="" style="shape=mxgraph.cisco.hubs_and_gateways.generic_gateway;sketch=0;html=1;pointerEvents=1;dashed=0;fillColor=#036897;strokeColor=#ffffff;strokeWidth=2;verticalLabelPosition=bottom;verticalAlign=top;align=center;outlineConnect=0;" vertex="1" parent="1">
          <mxGeometry x="382" y="120" width="66" height="74" as="geometry" />
        </mxCell>
        <mxCell id="1xLOZ17CYS4UkB0JXkVa-5" value="Distributed Port Group&lt;br&gt;trust-interconnect&lt;br&gt;VLAN1610 -&amp;nbsp;10.206.5.0/24" style="whiteSpace=wrap;html=1;verticalAlign=top;fillColor=#f5f5f5;strokeColor=#666666;sketch=0;dashed=0;strokeWidth=2;fontColor=#333333;" vertex="1" parent="1">
          <mxGeometry x="532" y="20" width="150" height="60" as="geometry" />
        </mxCell>
        <mxCell id="1xLOZ17CYS4UkB0JXkVa-7" value="" style="shape=mxgraph.cisco.hubs_and_gateways.generic_gateway;sketch=0;html=1;pointerEvents=1;dashed=0;fillColor=#036897;strokeColor=#ffffff;strokeWidth=2;verticalLabelPosition=bottom;verticalAlign=top;align=center;outlineConnect=0;" vertex="1" parent="1">
          <mxGeometry x="752" y="120" width="66" height="74" as="geometry" />
        </mxCell>
        <mxCell id="1xLOZ17CYS4UkB0JXkVa-8" value="" style="curved=1;endArrow=classic;html=1;rounded=0;entryX=0;entryY=1;entryDx=0;entryDy=0;exitX=0.5;exitY=0;exitDx=0;exitDy=0;exitPerimeter=0;" edge="1" parent="1" source="1xLOZ17CYS4UkB0JXkVa-4" target="1xLOZ17CYS4UkB0JXkVa-5">
          <mxGeometry width="50" height="50" relative="1" as="geometry">
            <mxPoint x="442" y="170" as="sourcePoint" />
            <mxPoint x="492" y="120" as="targetPoint" />
            <Array as="points">
              <mxPoint x="402" y="80" />
            </Array>
          </mxGeometry>
        </mxCell>
        <mxCell id="1xLOZ17CYS4UkB0JXkVa-9" value="" style="curved=1;endArrow=classic;html=1;rounded=0;entryX=1;entryY=1;entryDx=0;entryDy=0;exitX=0.5;exitY=0;exitDx=0;exitDy=0;exitPerimeter=0;" edge="1" parent="1" source="1xLOZ17CYS4UkB0JXkVa-7" target="1xLOZ17CYS4UkB0JXkVa-5">
          <mxGeometry width="50" height="50" relative="1" as="geometry">
            <mxPoint x="762" y="120" as="sourcePoint" />
            <mxPoint x="812" y="70" as="targetPoint" />
            <Array as="points">
              <mxPoint x="785" y="100" />
              <mxPoint x="752" y="80" />
            </Array>
          </mxGeometry>
        </mxCell>
        <mxCell id="1xLOZ17CYS4UkB0JXkVa-10" value=".19" style="text;html=1;resizable=0;autosize=1;align=center;verticalAlign=middle;points=[];fillColor=none;strokeColor=none;rounded=0;" vertex="1" parent="1">
          <mxGeometry x="426" y="100" width="30" height="20" as="geometry" />
        </mxCell>
        <mxCell id="1xLOZ17CYS4UkB0JXkVa-11" value=".20" style="text;html=1;resizable=0;autosize=1;align=center;verticalAlign=middle;points=[];fillColor=none;strokeColor=none;rounded=0;" vertex="1" parent="1">
          <mxGeometry x="741" y="100" width="30" height="20" as="geometry" />
        </mxCell>
        <mxCell id="1xLOZ17CYS4UkB0JXkVa-12" value="LS - tr-transport&lt;br&gt;10.206.21.48/28" style="text;html=1;resizable=0;autosize=1;align=center;verticalAlign=middle;points=[];fillColor=none;strokeColor=none;rounded=0;" vertex="1" parent="1">
          <mxGeometry x="557" y="179" width="100" height="30" as="geometry" />
        </mxCell>
        <mxCell id="1xLOZ17CYS4UkB0JXkVa-13" value="Powered Off" style="text;html=1;resizable=0;autosize=1;align=center;verticalAlign=middle;points=[];fillColor=none;strokeColor=none;rounded=0;fontStyle=1" vertex="1" parent="1">
          <mxGeometry x="260" y="147" width="90" height="20" as="geometry" />
        </mxCell>
        <mxCell id="1xLOZ17CYS4UkB0JXkVa-14" value="ESG/edge-2/ecmp02" style="text;html=1;resizable=0;autosize=1;align=center;verticalAlign=middle;points=[];fillColor=none;strokeColor=none;rounded=0;" vertex="1" parent="1">
          <mxGeometry x="818" y="130" width="130" height="20" as="geometry" />
        </mxCell>
        <mxCell id="1xLOZ17CYS4UkB0JXkVa-18" value="" style="edgeStyle=orthogonalEdgeStyle;rounded=0;orthogonalLoop=1;jettySize=auto;html=1;endArrow=none;endFill=0;" edge="1" parent="1" source="1xLOZ17CYS4UkB0JXkVa-15" target="1xLOZ17CYS4UkB0JXkVa-7">
          <mxGeometry relative="1" as="geometry" />
        </mxCell>
        <mxCell id="1xLOZ17CYS4UkB0JXkVa-15" value="" style="shape=mxgraph.cisco.switches.layer_3_switch;sketch=0;html=1;pointerEvents=1;dashed=0;fillColor=#036897;strokeColor=#ffffff;strokeWidth=2;verticalLabelPosition=bottom;verticalAlign=top;align=center;outlineConnect=0;" vertex="1" parent="1">
          <mxGeometry x="577" y="209" width="64" height="64" as="geometry" />
        </mxCell>
        <mxCell id="1xLOZ17CYS4UkB0JXkVa-16" value="" style="endArrow=none;html=1;rounded=0;entryX=0.5;entryY=1;entryDx=0;entryDy=0;entryPerimeter=0;" edge="1" parent="1" source="1xLOZ17CYS4UkB0JXkVa-19" target="1xLOZ17CYS4UkB0JXkVa-15">
          <mxGeometry width="50" height="50" relative="1" as="geometry">
            <mxPoint x="570" y="400" as="sourcePoint" />
            <mxPoint x="620" y="350" as="targetPoint" />
          </mxGeometry>
        </mxCell>
        <mxCell id="1xLOZ17CYS4UkB0JXkVa-19" value="" style="shape=mxgraph.cisco.hubs_and_gateways.generic_gateway;sketch=0;html=1;pointerEvents=1;dashed=0;fillColor=#036897;strokeColor=#ffffff;strokeWidth=2;verticalLabelPosition=bottom;verticalAlign=top;align=center;outlineConnect=0;" vertex="1" parent="1">
          <mxGeometry x="577" y="306" width="66" height="74" as="geometry" />
        </mxCell>
        <mxCell id="1xLOZ17CYS4UkB0JXkVa-20" value=".49" style="text;html=1;resizable=0;autosize=1;align=center;verticalAlign=middle;points=[];fillColor=none;strokeColor=none;rounded=0;" vertex="1" parent="1">
          <mxGeometry x="418" y="205" width="30" height="20" as="geometry" />
        </mxCell>
        <mxCell id="1xLOZ17CYS4UkB0JXkVa-21" value="ESG/edge-1/ecmp01" style="text;html=1;resizable=0;autosize=1;align=center;verticalAlign=middle;points=[];fillColor=none;strokeColor=none;rounded=0;" vertex="1" parent="1">
          <mxGeometry x="252" y="120" width="130" height="20" as="geometry" />
        </mxCell>
        <mxCell id="1xLOZ17CYS4UkB0JXkVa-22" value=".50" style="text;html=1;resizable=0;autosize=1;align=center;verticalAlign=middle;points=[];fillColor=none;strokeColor=none;rounded=0;" vertex="1" parent="1">
          <mxGeometry x="752" y="205" width="30" height="20" as="geometry" />
        </mxCell>
        <mxCell id="1xLOZ17CYS4UkB0JXkVa-23" value="DLR/edge-3/dlr01" style="text;html=1;resizable=0;autosize=1;align=center;verticalAlign=middle;points=[];fillColor=none;strokeColor=none;rounded=0;" vertex="1" parent="1">
          <mxGeometry x="636" y="306" width="110" height="20" as="geometry" />
        </mxCell>
        <mxCell id="1xLOZ17CYS4UkB0JXkVa-24" value=".51" style="text;html=1;resizable=0;autosize=1;align=center;verticalAlign=middle;points=[];fillColor=none;strokeColor=none;rounded=0;" vertex="1" parent="1">
          <mxGeometry x="611" y="286" width="30" height="20" as="geometry" />
        </mxCell>
        <mxCell id="1xLOZ17CYS4UkB0JXkVa-27" value="LS - avi-mgmt&lt;br&gt;10.206.40.0/22" style="text;html=1;resizable=0;autosize=1;align=center;verticalAlign=middle;points=[];fillColor=none;strokeColor=none;rounded=0;" vertex="1" parent="1">
          <mxGeometry x="636" y="450" width="100" height="30" as="geometry" />
        </mxCell>
        <mxCell id="1xLOZ17CYS4UkB0JXkVa-28" value="" style="shape=mxgraph.cisco.switches.layer_3_switch;sketch=0;html=1;pointerEvents=1;dashed=0;fillColor=#036897;strokeColor=#ffffff;strokeWidth=2;verticalLabelPosition=bottom;verticalAlign=top;align=center;outlineConnect=0;" vertex="1" parent="1">
          <mxGeometry x="579" y="445" width="64" height="64" as="geometry" />
        </mxCell>
        <mxCell id="1xLOZ17CYS4UkB0JXkVa-29" value="" style="endArrow=none;html=1;rounded=0;entryX=0.5;entryY=1;entryDx=0;entryDy=0;entryPerimeter=0;" edge="1" parent="1" source="1xLOZ17CYS4UkB0JXkVa-28" target="1xLOZ17CYS4UkB0JXkVa-19">
          <mxGeometry width="50" height="50" relative="1" as="geometry">
            <mxPoint x="580" y="350" as="sourcePoint" />
            <mxPoint x="630" y="300" as="targetPoint" />
          </mxGeometry>
        </mxCell>
        <mxCell id="1xLOZ17CYS4UkB0JXkVa-30" value="10.206.40.1" style="text;html=1;resizable=0;autosize=1;align=center;verticalAlign=middle;points=[];fillColor=none;strokeColor=none;rounded=0;" vertex="1" parent="1">
          <mxGeometry x="611" y="380" width="80" height="20" as="geometry" />
        </mxCell>
        <mxCell id="1xLOZ17CYS4UkB0JXkVa-31" value="&lt;font style=&quot;font-size: 16px&quot;&gt;OSPF&lt;/font&gt;" style="text;html=1;resizable=0;autosize=1;align=center;verticalAlign=middle;points=[];fillColor=none;strokeColor=none;rounded=0;dashed=1;dashPattern=1 1;" vertex="1" parent="1">
          <mxGeometry x="853" y="60" width="60" height="20" as="geometry" />
        </mxCell>
        <mxCell id="1xLOZ17CYS4UkB0JXkVa-33" value="&lt;font style=&quot;font-size: 10px&quot;&gt;dhcp-server&lt;/font&gt;" style="shape=datastore;whiteSpace=wrap;html=1;fontSize=16;" vertex="1" parent="1">
          <mxGeometry x="407" y="448.5" width="60" height="60" as="geometry" />
        </mxCell>
        <mxCell id="1xLOZ17CYS4UkB0JXkVa-34" value="" style="endArrow=none;html=1;rounded=0;fontSize=10;entryX=0;entryY=0.5;entryDx=0;entryDy=0;entryPerimeter=0;exitX=1;exitY=0.5;exitDx=0;exitDy=0;" edge="1" parent="1" source="1xLOZ17CYS4UkB0JXkVa-33" target="1xLOZ17CYS4UkB0JXkVa-28">
          <mxGeometry width="50" height="50" relative="1" as="geometry">
            <mxPoint x="460" y="540" as="sourcePoint" />
            <mxPoint x="510" y="490" as="targetPoint" />
          </mxGeometry>
        </mxCell>
        <mxCell id="1xLOZ17CYS4UkB0JXkVa-35" value="10.206.42.91" style="text;html=1;resizable=0;autosize=1;align=center;verticalAlign=middle;points=[];fillColor=none;strokeColor=none;rounded=0;" vertex="1" parent="1">
          <mxGeometry x="460" y="445.5" width="90" height="20" as="geometry" />
        </mxCell>
        <mxCell id="1xLOZ17CYS4UkB0JXkVa-36" value="" style="shape=mxgraph.cisco.hubs_and_gateways.generic_gateway;sketch=0;html=1;pointerEvents=1;dashed=0;fillColor=#036897;strokeColor=#ffffff;strokeWidth=2;verticalLabelPosition=bottom;verticalAlign=top;align=center;outlineConnect=0;" vertex="1" parent="1">
          <mxGeometry x="194" y="440" width="66" height="74" as="geometry" />
        </mxCell>
        <mxCell id="1xLOZ17CYS4UkB0JXkVa-37" value="" style="endArrow=none;html=1;rounded=0;fontSize=10;entryX=0;entryY=0.5;entryDx=0;entryDy=0;exitX=1;exitY=0.5;exitDx=0;exitDy=0;exitPerimeter=0;" edge="1" parent="1" source="1xLOZ17CYS4UkB0JXkVa-36" target="1xLOZ17CYS4UkB0JXkVa-33">
          <mxGeometry width="50" height="50" relative="1" as="geometry">
            <mxPoint x="210" y="520" as="sourcePoint" />
            <mxPoint x="260" y="470" as="targetPoint" />
          </mxGeometry>
        </mxCell>
        <mxCell id="1xLOZ17CYS4UkB0JXkVa-38" value="DLR/edge-4/dlr02" style="text;html=1;resizable=0;autosize=1;align=center;verticalAlign=middle;points=[];fillColor=none;strokeColor=none;rounded=0;" vertex="1" parent="1">
          <mxGeometry x="170" y="390" width="110" height="20" as="geometry" />
        </mxCell>
      </root>
    </mxGraphModel>
  </diagram>
</mxfile>
